# xmcd
#
# Track frame offsets:
# 182
# 11005
# 25127
# 38197
# 49252
# 58915
# 71730
# 82330
# 93985
# 107050
# 116880
# 132835
# 144337
# 155795
# 167922
# 181210
# 191512
# 202852
# 215737
# 227730
# 241512
# 250417
# 263675
# 278080
# 287277
# 297035
# 309262
# 323515
# 333130
#
# Disc length: 4585 seconds
#
#
# Revision: 0
# Processed by: cddbd v1.5.1PL0 Copyright (c) Steve Scherf et al.
# Submitted via: FreeRIP 2.91 
#
DISCID=a111e71d
DTITLE=Virginia Lee - Boerenooientjie
DYEAR=1960
DGENRE=Afrikaans Folk Songs
TTITLE0=Groen Koringlande
TTITLE1=Gebed van 'n jong vrou
TTITLE2=Tienduisend Myl
TTITLE3=Liefling dis wonderlik
TTITLE4=Ek sal jou nooit vergeet nie
TTITLE5=Ek hoor die stemme
TTITLE6=Jy is my liefling
TTITLE7=Allen in droomland
TTITLE8=Seeman
TTITLE9=Trekliedjie
TTITLE10=Wit is die lelie
TTITLE11=Tahiti
TTITLE12=Die ou Kalahari
TTITLE13=Nog 'n dansie
TTITLE14=Vaarwel my lief
TTITLE15=Boerenooientjie
TTITLE16=Saggies en teer
TTITLE17=Die eensame wagter
TTITLE18=In die skadu van ou Tafelberg
TTITLE19=Hy is die lig
TTITLE20=Die swaeltjie
TTITLE21=Tom Dooley
TTITLE22=Huise in die berge
TTITLE23=In die vêrre land
TTITLE24=Lied van die veld
TTITLE25=Die son skyn weer more
TTITLE26=My dagboek
TTITLE27=Aan die einde van die dag
TTITLE28=Mammie en Pappie wals
EXTD=Still top of the pops music to this day.\nDec 2004\nJohn Sadie.
EXTT0=
EXTT1=
EXTT2=
EXTT3=
EXTT4=
EXTT5=
EXTT6=
EXTT7=
EXTT8=
EXTT9=
EXTT10=
EXTT11=
EXTT12=
EXTT13=
EXTT14=
EXTT15=
EXTT16=
EXTT17=
EXTT18=
EXTT19=
EXTT20=
EXTT21=
EXTT22=
EXTT23=
EXTT24=
EXTT25=
EXTT26=
EXTT27=
EXTT28=
PLAYORDER=
